<svg width="646" height="529" viewBox="0 0 646 529" fill="none" xmlns="http://www.w3.org/2000/svg">
<path d="M631.497 421.215C639.32 450.176 619.263 463.649 608.256 466.765C590.23 478.985 556.552 459.116 561.188 443.036C565.824 426.956 575.156 429.646 577.474 421.606C579.329 415.174 576.661 401.052 575.096 394.795C582.632 359.868 625.898 400.489 631.497 421.215Z" fill="#FFB40A"/>
<path d="M593.703 179.802C489.261 190.968 384.709 201.115 280.068 210.238C290.157 210.442 295.647 196.581 284.444 193.607C290.049 188.903 288.425 180.772 282.562 178.439C295.194 178.239 288.644 162.31 281.522 166.896C291.741 167.823 292 152.775 281.766 153.351C291.435 152.152 299.114 142.187 297.8 132.537C296.49 122.885 283.168 117.315 275.039 115.67C285.514 110.538 284.391 104.502 274.185 99.5384C285.565 96.7869 285.096 88.748 273.236 86.9572C285.185 81.1322 280.643 75.0128 271.199 72.3972C282.137 68.8722 279.814 61.1795 269.445 60.2191C268.065 60.0762 268.729 58.2226 268.855 57.2322C372.118 48.6108 475.971 41.1622 577.72 21.1727C579.266 22.5657 579.846 24.9238 579.127 26.8768C569.949 26.2936 571.4 39.7116 580.232 37.1898C569.701 35.8544 570.154 51.9463 583.497 51.8321C574.585 54.2731 576.389 65.6261 586.04 65.3685C574.703 67.6623 573.917 79.9446 586.168 82.6346C561.955 83.9511 567.781 115.501 590.471 117.671C587.577 119.306 584.285 120.233 580.969 120.351C581.829 126.184 588.032 130.654 593.759 129.362C594.116 129.054 594.468 128.748 595.686 131.08C583.65 127.294 579.4 145.019 591.836 147.096C587.995 146.323 584.544 150.771 585.326 154.615C586.108 158.458 589.859 161.119 593.702 161.875C583.295 161.067 584.03 176.411 593.834 175.39C584.205 176.393 571.168 180.805 561.636 177.635C556.438 175.907 555.107 169.309 554.624 163.859C551.259 125.705 544.359 84.9349 540.992 46.7767C481.616 51.8441 425.883 58.8276 366.708 64.4545C356.621 67.1999 318.628 71.0321 313.814 71.8652C315.002 108.058 322.326 147.764 327.872 183.729C328.503 187.231 329 191.285 326.634 193.948C381.56 184.876 427.339 182.482 482.998 181.326C491.787 181.144 529.876 178.046 546.033 174.568C541.128 126.832 537.608 103.241 534.04 54.9886C490.533 58.7248 448.126 64.2682 404.543 67.431C386.143 68.1781 341.341 75.5838 323.004 77.2695C322.518 102.492 333.536 149.226 334.36 172.614C333.034 181.109 332.103 184.184 325.994 188.951" stroke="white" stroke-width="2.5" stroke-miterlimit="10" stroke-linecap="round" stroke-linejoin="round"/>
<path d="M441 169.393L143.517 133L138 289.169L399.159 338L441 169.393Z" fill="black"/>
<path d="M421.425 318.741C422.184 318.808 422.944 318.874 423.704 318.94C422.914 318.956 422.152 318.886 421.425 318.741C412.858 317.04 409.002 305.05 419.328 302.309C413.723 297.605 415.347 289.474 421.21 287.141C411.076 286.981 413.288 276.697 418.236 275.004C412.2 272.257 413.349 261.566 422.006 262.053C412.337 260.854 404.658 250.889 405.972 241.24C407.282 231.588 420.604 226.017 428.733 224.372C418.258 219.24 419.381 213.204 429.587 208.241C418.207 205.489 418.676 197.45 430.536 195.659C418.587 189.834 423.129 183.715 432.573 181.099C421.635 177.574 423.958 169.882 434.327 168.921C435.707 168.778 435.043 166.925 434.917 165.934C331.654 157.313 227.801 149.864 126.052 129.875C124.506 131.268 123.926 133.626 124.645 135.579C132.535 135.078 132.57 144.922 126.815 146.094C133.784 148.139 132.039 160.635 120.275 160.534C129.187 162.975 127.383 174.328 117.732 174.071C129.069 176.364 129.855 188.647 117.604 191.337C141.817 192.653 135.991 224.203 113.301 226.373C116.195 228.008 119.487 228.935 122.803 229.053C121.943 234.886 115.739 239.356 110.013 238.064L110.012 238.063C109.656 237.756 109.303 237.451 108.086 239.782C120.05 236.018 124.322 253.511 112.156 255.76C115.908 255.195 119.213 259.547 118.446 263.317C117.664 267.16 113.913 269.821 110.07 270.577C120.477 269.769 119.742 285.114 109.938 284.092C119.567 285.095 132.604 289.507 142.136 286.337C147.333 284.609 148.664 278.011 149.148 272.561C152.513 234.407 159.413 193.637 162.78 155.479C222.156 160.546 277.889 167.53 337.064 173.157C347.151 175.902 385.144 179.734 389.958 180.567C388.77 216.76 381.446 256.467 375.9 292.432C375.711 293.481 375.534 294.58 375.442 295.676C375.228 298.238 375.481 300.785 377.138 302.65C322.212 293.578 276.433 291.184 220.774 290.028C211.985 289.846 173.896 286.748 157.739 283.27C162.644 235.534 166.164 211.943 169.732 163.691C213.239 167.427 255.646 172.97 299.229 176.133C317.629 176.88 362.431 184.286 380.768 185.972C381.254 211.194 370.236 257.928 369.412 281.316C370.547 288.586 371.393 291.887 375.442 295.676C375.534 294.58 375.711 293.481 375.9 292.432C381.446 256.467 388.77 216.76 389.958 180.567C385.144 179.734 347.151 175.902 337.064 173.157C277.889 167.53 222.156 160.546 162.78 155.479C159.413 193.637 152.513 234.407 149.148 272.561C148.664 278.011 147.333 284.609 142.136 286.337C132.604 289.507 119.567 285.095 109.938 284.092C119.742 285.114 120.477 269.769 110.07 270.577C113.913 269.821 117.664 267.16 118.446 263.317C119.213 259.547 115.908 255.195 112.156 255.76C112.083 255.773 112.01 255.786 111.936 255.798C112.01 255.784 112.083 255.771 112.156 255.76C124.322 253.511 120.05 236.018 108.086 239.782C109.303 237.451 109.656 237.756 110.012 238.063L110.013 238.064C115.739 239.356 121.943 234.886 122.803 229.053C119.487 228.935 116.195 228.008 113.301 226.373C135.991 224.203 141.817 192.653 117.604 191.337C129.855 188.647 129.069 176.364 117.732 174.071C127.383 174.328 129.187 162.975 120.275 160.534C132.039 160.635 133.784 148.139 126.815 146.094C125.874 146.286 124.78 146.246 123.54 145.892C124.786 145.734 125.879 145.82 126.815 146.094C132.57 144.922 132.535 135.078 124.645 135.579C123.926 133.626 124.506 131.268 126.052 129.875C227.801 149.864 331.654 157.313 434.917 165.934C435.043 166.925 435.707 168.778 434.327 168.921C423.958 169.882 421.635 177.574 432.573 181.099C423.129 183.715 418.587 189.834 430.536 195.659C418.676 197.45 418.207 205.489 429.587 208.241C419.381 213.204 418.258 219.24 428.733 224.372C420.604 226.017 407.282 231.588 405.972 241.24C404.658 250.889 412.337 260.854 422.006 262.053C413.349 261.566 412.2 272.257 418.236 275.004C419.456 274.587 420.841 274.692 422.25 275.599C420.675 275.741 419.336 275.505 418.236 275.004C413.288 276.697 411.076 286.981 421.21 287.141C415.347 289.474 413.723 297.605 419.328 302.309C409.002 305.05 412.858 317.04 421.425 318.741Z" fill="black"/>
<path d="M110.069 288.504C214.511 299.67 319.063 309.817 423.704 318.94C413.615 319.144 408.125 305.283 419.328 302.309C413.723 297.605 415.347 289.474 421.21 287.141C408.578 286.942 415.128 271.012 422.25 275.599C412.031 276.525 411.772 261.477 422.006 262.053C412.337 260.854 404.658 250.889 405.972 241.24C407.282 231.588 420.604 226.017 428.733 224.372C418.258 219.24 419.381 213.204 429.587 208.241C418.207 205.489 418.676 197.45 430.536 195.659C418.587 189.834 423.129 183.715 432.573 181.099C421.635 177.574 423.958 169.882 434.327 168.921C435.707 168.778 435.043 166.925 434.917 165.934C331.654 157.313 227.801 149.864 126.052 129.875C124.506 131.268 123.926 133.626 124.645 135.579C133.823 134.996 132.372 148.414 123.54 145.892C134.071 144.557 133.618 160.648 120.275 160.534C129.187 162.975 127.383 174.328 117.732 174.071C129.069 176.364 129.855 188.647 117.604 191.337C141.817 192.653 135.991 224.203 113.301 226.373C116.195 228.008 119.487 228.935 122.803 229.053C121.943 234.886 115.739 239.356 110.013 238.064C109.656 237.756 109.304 237.45 108.086 239.782C120.122 235.996 124.372 253.721 111.936 255.798C115.777 255.025 119.228 259.474 118.446 263.317C117.664 267.16 113.913 269.821 110.07 270.577C120.477 269.769 119.742 285.114 109.938 284.092C119.567 285.095 132.604 289.507 142.136 286.337C147.333 284.609 148.664 278.011 149.148 272.561C152.513 234.407 159.413 193.637 162.78 155.479C222.156 160.546 277.889 167.53 337.064 173.157C347.151 175.902 385.144 179.734 389.958 180.567C388.77 216.76 381.446 256.467 375.9 292.432C375.269 295.933 374.772 299.987 377.138 302.65C322.212 293.578 276.433 291.184 220.774 290.028C211.985 289.846 173.896 286.748 157.739 283.27C162.644 235.534 166.164 211.943 169.732 163.691C213.239 167.427 255.646 172.97 299.229 176.133C317.629 176.88 362.431 184.286 380.768 185.972C381.254 211.194 370.236 257.928 369.412 281.316C370.738 289.811 371.669 292.886 377.778 297.653" stroke="white" stroke-width="2.5" stroke-miterlimit="10" stroke-linecap="round" stroke-linejoin="round"/>
<g style="mix-blend-mode:lighten">
<path d="M150.388 205.067C157.237 206.455 159.374 178.586 142.511 179.78C127.763 166.56 151.631 154.87 145.816 140.423C135.14 113.902 96.1127 128.481 88.3908 161.917C86.3495 200.399 111.454 201.417 116.411 211.977C127.721 236.072 136.306 202.214 150.388 205.067Z" fill="#FF5E27"/>
</g>
<g style="mix-blend-mode:lighten">
<path d="M385.904 443.436C357.588 429.687 348.854 448.259 339.333 448.639C311.902 449.733 327.118 493.48 355.284 478.502C369.915 471.597 371.139 493.272 383.859 493.48C407.208 493.861 408.621 459.859 385.904 443.436Z" fill="#1E56E1"/>
</g>
<path d="M135 328.636C241.883 289.984 475.209 197.445 480 194.5C484.3 215.513 474.537 273.511 474.537 279.401C474.537 285.291 502.179 333.084 516 356.244L174.62 411L135 328.636Z" fill="black" stroke="black"/>
<path d="M235.453 214.718L238.082 214.953L237.483 221.647L235.272 221.449C233.918 221.328 232.817 221.51 231.97 221.997C232.747 223.191 233.05 224.744 232.879 226.656C232.622 229.525 231.229 231.85 228.7 233.632C226.211 235.417 222.644 236.905 218 238.096C220.488 238.117 222.674 238.373 224.557 238.863C226.441 239.353 227.987 240.254 229.195 241.567C230.403 242.88 230.916 244.552 230.734 246.584C230.609 247.979 230.241 249.171 229.631 250.16C229.06 251.153 228.127 251.933 226.831 252.5C225.572 253.11 224.165 253.567 222.612 253.869C221.059 254.172 219.018 254.311 216.491 254.285C213.959 254.3 211.375 254.229 208.739 254.074C206.102 253.918 202.832 253.666 198.927 253.316L199.526 246.623C202.952 246.929 205.683 247.154 207.719 247.296C209.791 247.481 211.808 247.601 213.771 247.657C215.734 247.712 217.22 247.704 218.23 247.634C219.241 247.564 220.14 247.383 220.929 247.092C221.755 246.845 222.307 246.513 222.585 246.096C222.903 245.683 223.091 245.157 223.148 244.52C223.222 243.683 223.004 242.981 222.493 242.413C221.981 241.845 221.133 241.448 219.949 241.222C218.804 240.999 217.674 240.837 216.559 240.738C215.443 240.638 213.935 240.663 212.034 240.815C210.176 240.929 208.679 241.056 207.542 241.196C206.448 241.299 204.928 241.464 202.979 241.691L202.375 236.998C209.849 236.503 215.545 235.908 219.462 235.214L219.639 233.242C216.935 233.844 214.342 234.094 211.861 233.992C209.384 233.851 207.176 233.392 205.237 232.616C203.342 231.804 201.867 230.568 200.81 228.907C199.798 227.21 199.395 225.206 199.601 222.895C199.947 219.031 201.725 216.218 204.935 214.457C208.184 212.7 212.2 212.035 216.98 212.463C221.602 212.876 225.254 214.247 227.937 216.576C229.84 215.059 232.345 214.44 235.453 214.718ZM215.8 230.369C221.736 230.9 224.87 229.313 225.202 225.608C225.537 221.863 222.736 219.725 216.8 219.193C210.784 218.655 207.608 220.258 207.273 224.003C206.942 227.709 209.784 229.83 215.8 230.369ZM256.901 211.758C255.913 212.473 254.642 212.761 253.088 212.622C251.535 212.483 250.335 211.974 249.49 211.095C248.649 210.176 248.29 209.02 248.415 207.625C248.54 206.231 249.096 205.176 250.084 204.461C251.075 203.707 252.348 203.399 253.901 203.538C255.415 203.673 256.613 204.202 257.494 205.125C258.376 206.047 258.756 207.185 258.634 208.54C258.51 209.934 257.932 211.007 256.901 211.758ZM238.663 245.246L239.262 238.553L247.748 239.312L249.272 222.28L242.362 222.083L242.961 215.39L252.577 215.648C254.098 215.704 255.221 216.166 255.947 217.034C256.672 217.902 256.969 219.073 256.837 220.547L255.099 239.97L263.585 240.729L262.986 247.422L238.663 245.246ZM300.642 220.552L303.271 220.787L302.672 227.48L300.461 227.283C299.106 227.161 298.006 227.344 297.159 227.83C297.936 229.024 298.238 230.578 298.067 232.49C297.811 235.358 296.418 237.684 293.889 239.465C291.4 241.25 287.833 242.738 283.188 243.929C285.676 243.951 287.862 244.207 289.746 244.697C291.63 245.187 293.176 246.088 294.384 247.401C295.591 248.714 296.104 250.386 295.923 252.418C295.798 253.812 295.43 255.004 294.819 255.994C294.249 256.987 293.315 257.767 292.02 258.334C290.76 258.944 289.354 259.4 287.801 259.703C286.248 260.006 284.207 260.145 281.679 260.119C279.148 260.134 276.564 260.063 273.927 259.907C271.291 259.752 268.02 259.499 264.116 259.15L264.715 252.457C268.141 252.763 270.872 252.987 272.908 253.129C274.979 253.315 276.997 253.435 278.959 253.49C280.922 253.546 282.409 253.538 283.419 253.468C284.429 253.398 285.329 253.217 286.118 252.926C286.944 252.679 287.495 252.347 287.774 251.93C288.092 251.516 288.279 250.991 288.336 250.354C288.411 249.517 288.193 248.815 287.682 248.247C287.17 247.679 286.322 247.282 285.138 247.055C283.993 246.832 282.863 246.671 281.747 246.571C280.632 246.471 279.123 246.497 277.222 246.648C275.365 246.763 273.867 246.89 272.731 247.029C271.637 247.132 270.116 247.297 268.168 247.525L267.564 242.832C275.038 242.336 280.734 241.742 284.651 241.048L284.828 239.076C282.123 239.677 279.531 239.927 277.05 239.826C274.573 239.684 272.365 239.226 270.426 238.45C268.531 237.638 267.055 236.401 265.999 234.74C264.986 233.043 264.583 231.04 264.79 228.729C265.136 224.864 266.914 222.052 270.123 220.291C273.373 218.533 277.388 217.868 282.169 218.296C286.791 218.71 290.443 220.081 293.126 222.409C295.029 220.893 297.534 220.274 300.642 220.552ZM280.988 236.202C286.925 236.734 290.059 235.147 290.39 231.441C290.725 227.696 287.925 225.558 281.989 225.027C275.973 224.489 272.797 226.092 272.462 229.837C272.13 233.542 274.972 235.664 280.988 236.202ZM331.714 245.44C331.197 251.217 326.576 253.715 317.851 252.935C312.751 252.478 309.055 251.144 306.763 248.93C304.515 246.681 303.555 243.724 303.883 240.058L311.592 240.748C311.257 244.493 313.579 246.589 318.559 247.034C322.026 247.344 323.844 246.543 324.015 244.631C324.104 243.635 323.734 242.839 322.904 242.242C322.074 241.646 320.555 240.888 318.348 239.967C317.765 239.755 317.319 239.574 317.011 239.426C313.185 237.758 310.688 236.491 309.52 235.623C307.153 233.805 306.073 231.52 306.279 228.767C306.51 226.177 307.766 224.262 310.046 223.02C312.329 221.738 315.403 221.27 319.268 221.616C323.849 222.026 327.145 223.345 329.154 225.573C331.167 227.761 332.038 230.369 331.767 233.397L324.058 232.707C324.336 229.6 322.543 227.873 318.679 227.527C315.691 227.26 314.122 227.963 313.972 229.636C313.89 230.552 314.362 231.338 315.388 231.992C316.413 232.646 318.28 233.556 320.986 234.722C324.853 236.393 327.334 237.619 328.428 238.4C330.875 240.225 331.97 242.572 331.714 245.44Z" fill="white"/>
<path d="M2 485.548C42.4525 441.789 97.6512 472.73 129.102 511.299C134.601 516.892 140.428 522.574 147.804 525.238C159.886 529.61 173.171 525.018 185.177 520.451C310.899 472.623 436.156 423.566 560.921 373.287C549.52 379.371 535.215 366.723 546.282 356.827C537.155 354.704 534.295 344.475 539.637 338.409C525.099 345.508 523.341 323.511 534.132 324.62C523.001 331.606 513.981 314.567 526 309.288C514.264 313.528 499.72 306.599 495.626 294.813C491.525 283.028 503.506 268.937 511.833 262.341C496.898 262.556 494.681 255.009 503.455 243.419C488.867 246.877 484.741 237.422 497.244 228.497C480.224 228.774 481.862 219.149 491.128 210.683C476.596 213.001 474.788 202.866 486.07 195.754C487.563 194.79 485.73 193.058 485.012 192C362.111 242.052 239.216 293.786 111.452 329.974C110.495 332.462 111.2 335.492 113.153 337.306C123.295 331.316 129.417 347.486 117.871 349.728C129.121 342.094 137.934 360.739 122.633 368.348C134.223 365.967 138.746 379.982 127.578 385.286C141.852 381.33 149.87 394.905 137.442 405.084C165.851 392.543 177.492 431.962 152.843 447.603C157.095 447.792 161.391 446.941 165.246 445.152C167.646 452.314 163.155 461.02 155.867 462.865C155.281 462.72 154.702 462.576 154.664 465.946C166.21 454.639 181.34 472.421 168.345 482.008C172.282 478.896 178.802 481.977 180.137 486.821C181.473 491.665 178.733 496.88 174.783 499.973C186.197 493.013 194.255 510.967 182.468 515.488C194.044 511.048 211.487 508.526 220.533 499.375C225.465 494.386 223.16 486.077 220.552 479.57C202.272 434.035 186.512 383.46 168.232 337.917C238.964 309.263 306.648 284.911 377.474 257.012C390.582 254.298 436.184 236.636 442.163 234.795C461.791 276.829 476.451 326.434 490.97 370.735C492.281 375.101 494.063 380.02 498.309 381.69C430.336 403.188 376.679 427.009 312.46 457.975C302.319 462.865 257.034 481.421 236.57 486.821C214.493 429.445 204.834 400.455 180.931 343.265C232.772 322.296 284.406 304.029 336.001 282.36C357.443 272.54 412.89 255.011 434.804 246.299C449.982 274.83 464.499 334.607 477.119 361.801C483.558 370.735 486.404 373.709 496.142 375.611C564.731 416.982 640.709 344.666 617.854 445.413" stroke="white" stroke-width="2.5" stroke-miterlimit="10" stroke-linecap="round" stroke-linejoin="round"/>
<g style="mix-blend-mode:lighten">
<path fill-rule="evenodd" clip-rule="evenodd" d="M277 316.5C322 304 345.41 256.742 381 258.5C421.5 260.5 407.427 312.116 424.482 323.785C453.119 343.378 487.314 336.377 493.974 368.592C500.014 397.811 482.866 400.705 455.076 420.863C434.463 435.815 368.459 427.093 345.41 438.715C315.124 453.986 274.773 491.511 242.893 484.686C198 456 239.676 414.925 224 390.5C210.287 369.133 180.26 396.541 171 385.5C158 370 143.611 352.567 166.5 334C187.531 316.94 228 327 277 316.5Z" fill="#1E56E1"/>
</g>
<path d="M274.955 369.628C277.105 375.015 274.112 379.332 265.976 382.579C261.221 384.477 257.321 384.957 254.277 384.019C251.254 383.028 249.061 380.824 247.697 377.407L254.885 374.538C256.279 378.03 259.298 378.849 263.942 376.996C267.174 375.706 268.434 374.169 267.722 372.386C267.352 371.457 266.661 370.914 265.651 370.758C264.641 370.601 262.944 370.611 260.559 370.787C259.943 370.861 259.464 370.901 259.122 370.909C254.955 371.151 252.155 371.148 250.721 370.902C247.788 370.35 245.791 368.8 244.731 366.251C243.767 363.837 244.021 361.56 245.493 359.422C246.951 357.247 249.482 355.44 253.085 354.002C257.357 352.297 260.893 351.984 263.693 353.063C266.477 354.105 268.433 356.038 269.56 358.861L262.371 361.73C261.215 358.833 258.835 358.103 255.231 359.541C252.445 360.653 251.363 361.989 251.986 363.55C252.327 364.404 253.103 364.891 254.313 365.011C255.524 365.131 257.6 365.099 260.542 364.915C264.746 364.659 267.513 364.631 268.842 364.833C271.85 365.355 273.888 366.954 274.955 369.628ZM271.116 347.452L278.305 344.583L279.372 347.257L279.803 352.06L281.642 351.326C281.312 345.643 284.027 341.653 289.785 339.355C293.686 337.798 297.307 337.968 300.648 339.865C304.011 341.709 306.531 344.731 308.206 348.929C309.867 353.089 310.112 356.997 308.943 360.65C307.812 364.289 305.295 366.887 301.394 368.444C295.636 370.742 290.928 369.735 287.269 365.425L285.43 366.158L288.402 369.882L293.629 382.978L286.44 385.847L271.116 347.452ZM283.91 358.625C285.022 361.412 286.613 363.188 288.685 363.955C290.779 364.67 293.164 364.493 295.839 363.426C298.513 362.358 300.327 360.859 301.279 358.929C302.217 356.961 302.129 354.584 301.017 351.798C299.891 348.974 298.31 347.172 296.275 346.39C294.241 345.609 291.886 345.752 289.211 346.819C286.536 347.887 284.693 349.419 283.681 351.417C282.707 353.399 282.783 355.802 283.91 358.625ZM320.421 356.328C316.522 354.869 313.676 351.892 311.882 347.397C310.088 342.902 310.102 338.783 311.925 335.041C313.748 331.298 316.925 328.523 321.458 326.714C325.953 324.92 330.15 324.752 334.048 326.211C337.947 327.67 340.793 330.647 342.587 335.142C344.381 339.638 344.367 343.756 342.544 347.498C340.721 351.241 337.562 354.009 333.067 355.803C328.535 357.612 324.319 357.787 320.421 356.328ZM318.82 337.586C317.964 339.651 318.048 341.964 319.071 344.528C320.094 347.091 321.626 348.827 323.668 349.735C325.71 350.642 328.013 350.585 330.576 349.562C333.14 348.539 334.849 346.995 335.705 344.931C336.561 342.866 336.477 340.552 335.454 337.989C334.431 335.426 332.899 333.69 330.857 332.782C328.815 331.875 326.512 331.932 323.949 332.955C321.385 333.978 319.676 335.522 318.82 337.586ZM353.027 347.191L343.396 323.062C342.833 321.65 342.775 320.424 343.221 319.385C343.705 318.33 344.66 317.54 346.086 317.014L363.483 310.587L365.974 316.829L351.386 322.199L360.215 344.322L353.027 347.191ZM388.29 326.528L398.154 321.945L400.645 328.186L387.939 333.903C386.542 334.504 385.324 334.581 384.285 334.134C383.245 333.688 382.436 332.74 381.858 331.291L374.696 313.348L368.232 315.927L365.741 309.686L372.205 307.106L369.803 301.088L376.102 295.99L379.394 304.237L388.366 300.657L390.857 306.898L381.885 310.479L388.29 326.528ZM244.517 419.116C242.768 414.733 242.708 410.751 244.337 407.172C245.952 403.556 248.877 400.903 253.112 399.213C257.347 397.522 261.236 397.392 264.778 398.821C268.357 400.235 270.984 403.041 272.659 407.239L273.594 409.579L252.028 418.186C252.977 420.349 254.387 421.831 256.258 422.635C258.152 423.387 260.473 423.214 263.222 422.117C267.197 420.53 268.956 418.084 268.498 414.778L275.686 411.909C276.227 414.666 275.727 417.621 274.187 420.777C272.632 423.896 269.755 426.293 265.557 427.968C260.616 429.94 256.301 430.026 252.611 428.225C248.92 426.425 246.223 423.389 244.517 419.116ZM250.293 413.84L265.06 407.946C264.393 406.274 263.231 405.144 261.576 404.556C259.957 403.953 257.921 404.141 255.469 405.12C253.018 406.098 251.382 407.397 250.564 409.016C249.731 410.597 249.641 412.205 250.293 413.84ZM293.838 383.605L300.86 380.802L304.167 411.913L289.4 417.806L270.266 393.012L277.343 390.188L295.13 413.387L296.969 412.654L293.838 383.605ZM308.189 393.705C306.439 389.321 306.379 385.34 308.008 381.761C309.623 378.145 312.548 375.491 316.783 373.801C321.018 372.111 324.907 371.98 328.449 373.409C332.028 374.823 334.655 377.629 336.331 381.827L337.265 384.168L315.699 392.775C316.648 394.937 318.058 396.42 319.929 397.224C321.823 397.975 324.144 397.802 326.893 396.705C330.868 395.119 332.627 392.673 332.169 389.367L339.357 386.498C339.898 389.254 339.398 392.21 337.858 395.366C336.303 398.484 333.426 400.881 329.228 402.556C324.287 404.528 319.972 404.614 316.282 402.814C312.591 401.013 309.894 397.977 308.189 393.705ZM313.964 388.428L328.731 382.534C328.064 380.863 326.903 379.733 325.247 379.145C323.628 378.542 321.592 378.73 319.14 379.708C316.689 380.687 315.053 381.985 314.235 383.604C313.402 385.185 313.312 386.793 313.964 388.428ZM355.203 365.703C352.454 366.8 350.67 368.589 349.851 371.069C349.017 373.512 349.349 376.61 350.847 380.362L355.295 391.507L348.106 394.376L336.941 366.402L344.13 363.533L345.709 367.489L346.14 372.292L347.979 371.558C347.52 368.683 347.864 366.091 349.01 363.782C350.178 361.421 352.211 359.662 355.108 358.505C358.563 357.126 361.694 357.147 364.501 358.568C367.33 359.937 369.56 362.665 371.191 366.751L377.529 382.633L370.396 385.48L364.48 370.657C363.413 367.982 362.148 366.269 360.685 365.518C359.259 364.752 357.432 364.813 355.203 365.703ZM392.349 370.129L402.213 365.546L404.704 371.788L391.998 377.505C390.601 378.105 389.383 378.182 388.343 377.736C387.304 377.289 386.495 376.342 385.916 374.893L378.755 356.949L372.291 359.529L369.8 353.288L376.264 350.708L373.862 344.69L380.161 339.591L383.453 347.839L392.425 344.258L394.915 350.499L385.944 354.08L392.349 370.129ZM431.444 352.394C433.594 357.781 430.601 362.098 422.465 365.345C417.709 367.243 413.809 367.723 410.765 366.785C407.742 365.794 405.549 363.59 404.185 360.173L411.374 357.304C412.767 360.796 415.786 361.615 420.43 359.762C423.662 358.472 424.922 356.935 424.211 355.152C423.84 354.223 423.149 353.68 422.139 353.524C421.129 353.367 419.432 353.377 417.048 353.553C416.431 353.627 415.952 353.667 415.61 353.675C411.443 353.916 408.643 353.914 407.209 353.668C404.276 353.116 402.279 351.566 401.219 349.017C400.255 346.603 400.509 344.326 401.982 342.188C403.439 340.013 405.97 338.206 409.573 336.768C413.846 335.063 417.381 334.75 420.181 335.829C422.966 336.871 424.921 338.804 426.048 341.627L418.86 344.496C417.703 341.599 415.323 340.869 411.719 342.307C408.933 343.419 407.851 344.755 408.474 346.316C408.815 347.17 409.591 347.657 410.802 347.777C412.012 347.897 414.088 347.865 417.03 347.681C421.234 347.425 424.001 347.397 425.33 347.599C428.338 348.121 430.376 349.719 431.444 352.394Z" fill="white"/>
<path d="M370.92 122.923C370.699 119.784 371.469 117.244 373.23 115.302C374.989 113.333 377.385 112.242 380.418 112.028C383.45 111.815 385.946 112.521 387.905 114.147C389.891 115.772 390.99 118.087 391.202 121.092L391.32 122.768L375.878 123.857C376.042 125.423 376.636 126.651 377.662 127.541C378.711 128.402 380.221 128.764 382.189 128.625C385.035 128.424 386.649 127.228 387.029 125.036L392.176 124.673C391.959 126.533 391.042 128.308 389.424 130C387.803 131.664 385.49 132.603 382.484 132.815C378.947 133.064 376.189 132.243 374.211 130.35C372.233 128.458 371.136 125.982 370.92 122.923ZM375.659 120.745L386.232 119.999C386.148 118.802 385.64 117.849 384.708 117.139C383.802 116.428 382.471 116.134 380.716 116.258C378.96 116.382 377.658 116.874 376.81 117.736C375.96 118.571 375.576 119.574 375.659 120.745ZM409.447 110.383L414.475 110.028L410.261 130.455L399.687 131.201L392.569 111.573L397.637 111.215L404.223 129.558L405.54 129.465L409.447 110.383ZM416.51 119.709C416.289 116.57 417.059 114.03 418.82 112.088C420.579 110.119 422.975 109.028 426.008 108.814C429.04 108.601 431.536 109.307 433.495 110.933C435.481 112.557 436.58 114.873 436.792 117.878L436.91 119.554L421.468 120.643C421.632 122.209 422.226 123.436 423.252 124.327C424.301 125.188 425.811 125.55 427.779 125.411C430.625 125.21 432.239 124.014 432.619 121.822L437.766 121.459C437.549 123.319 436.632 125.094 435.014 126.786C433.393 128.45 431.08 129.389 428.074 129.6C424.537 129.85 421.779 129.028 419.801 127.136C417.823 125.244 416.726 122.768 416.51 119.709ZM421.249 117.531L431.822 116.785C431.738 115.588 431.23 114.635 430.298 113.925C429.392 113.214 428.061 112.92 426.306 113.044C424.55 113.168 423.248 113.66 422.4 114.522C421.55 115.357 421.166 116.36 421.249 117.531ZM452.049 111.47C450.08 111.608 448.584 112.382 447.561 113.791C446.536 115.173 446.118 117.208 446.307 119.894L446.87 127.874L441.722 128.237L440.31 108.207L445.457 107.844L445.657 110.677L444.956 113.814L446.273 113.721C446.565 111.803 447.31 110.226 448.506 108.993C449.727 107.73 451.375 107.026 453.449 106.88C455.923 106.705 457.907 107.354 459.401 108.826C460.92 110.269 461.782 112.454 461.988 115.38L462.79 126.752L457.683 127.112L456.934 116.498C456.799 114.583 456.344 113.239 455.567 112.465C454.818 111.689 453.645 111.357 452.049 111.47ZM474.739 121.82L481.933 120.911L482.248 125.38L473.019 126.432C472.01 126.53 471.221 126.331 470.651 125.837C470.082 125.342 469.76 124.576 469.687 123.539L468.781 110.691L464.153 111.017L463.838 106.548L468.466 106.222L468.162 101.913L473.197 99.9538L473.613 105.859L480.038 105.406L480.353 109.875L473.929 110.328L474.739 121.82ZM503.164 118.492C503.436 122.349 500.659 124.483 494.834 124.894C491.429 125.134 488.855 124.647 487.112 123.433C485.394 122.191 484.448 120.346 484.276 117.899L489.423 117.536C489.599 120.037 491.35 121.17 494.675 120.935C496.989 120.772 498.101 120.052 498.011 118.775C497.964 118.11 497.636 117.626 497.027 117.321C496.417 117.016 495.337 116.678 493.787 116.306C493.381 116.228 493.068 116.156 492.85 116.092C490.154 115.4 488.377 114.83 487.516 114.383C485.766 113.437 484.812 112.047 484.656 110.213C484.534 108.484 485.158 107.09 486.527 106.031C487.894 104.946 489.867 104.312 492.448 104.13C495.507 103.915 497.816 104.434 499.374 105.687C500.931 106.914 501.781 108.538 501.923 110.56L496.776 110.923C496.63 108.848 495.266 107.901 492.686 108.083C490.691 108.224 489.733 108.853 489.812 109.97C489.855 110.582 490.249 111.049 490.993 111.371C491.738 111.692 493.062 112.094 494.968 112.574C497.69 113.264 499.452 113.808 500.256 114.206C502.06 115.148 503.029 116.577 503.164 118.492Z" fill="white"/>
</svg>
